<svg xmlns="http://www.w3.org/2000/svg" version="1.1" xmlns:xlink="http://www.w3.org/1999/xlink" width="512" height="512" x="0" y="0" viewBox="0 0 512 512" style="enable-background:new 0 0 512 512" xml:space="preserve" class=""><g><path d="M411 8.783V100h91.211z" fill="#5f5959" opacity="1" data-original="#000000" class=""></path><path d="M396 130c-8.284 0-15-6.716-15-15V0H166c-24.813 0-45 20.187-45 45v167.689c4.942-.448 9.943-.689 15-.689 51.128 0 96.897 23.376 127.186 60H426c8.284 0 15 6.716 15 15s-6.716 15-15 15H282.948a163.749 163.749 0 0 1 17.363 60H426c8.284 0 15 6.716 15 15s-6.716 15-15 15H300.311c-4.486 49.539-30.954 92.826-69.553 120H466c24.813 0 45-20.187 45-45V130zm30 82H206c-8.284 0-15-6.716-15-15s6.716-15 15-15h220c8.284 0 15 6.716 15 15s-6.716 15-15 15z" fill="#5f5959" opacity="1" data-original="#000000" class=""></path><path d="M136 242C61.561 242 1 302.561 1 377s60.561 135 135 135 135-60.561 135-135-60.561-135-135-135zm-8.333 120h16.667c17.46 0 31.666 14.206 31.666 31.667v16.666c0 15.174-10.73 27.884-25 30.955V447c0 8.284-6.716 15-15 15s-15-6.716-15-15v-5.712c-14.27-3.071-25-15.781-25-30.955 0-8.284 6.716-15 15-15s15 6.716 15 15a1.67 1.67 0 0 0 1.667 1.667h16.667a1.67 1.67 0 0 0 1.667-1.667v-16.666a1.67 1.67 0 0 0-1.667-1.667h-16.667C110.206 392 96 377.794 96 360.333v-16.666c0-15.174 10.73-27.884 25-30.955V307c0-8.284 6.716-15 15-15s15 6.716 15 15v5.712c14.27 3.071 25 15.781 25 30.955 0 8.284-6.716 15-15 15s-15-6.716-15-15a1.67 1.67 0 0 0-1.667-1.667h-16.667a1.67 1.67 0 0 0-1.667 1.667v16.666a1.67 1.67 0 0 0 1.668 1.667z" fill="#5f5959" opacity="1" data-original="#000000" class=""></path></g></svg>